# xmcd
#
# Track frame offsets:
# 182
# 12277
# 24160
# 33325
# 43620
# 56835
# 68325
# 81485
# 92997
# 102965
# 112665
# 123892
# 135647
# 151082
# 160287
# 171487
# 182520
# 193490
# 204415
# 214260
#
# Disc length: 3001 seconds
#
# Revision: 0
# Processed by: cddbd v1.4PL0 Copyright (c) Steve Scherf et al.
# Submitted via: Audion 3.0.2 (http://www.panic.com/audion/)
#
DISCID=0b0bb714
DTITLE=Patsy Cline - Twenty Classic Tracks
DYEAR=1900
DGENRE=
TTITLE0=If I Could Stay Asleep
TTITLE1=The Heart You Break May Be Your Own
TTITLE2=Try Again
TTITLE3=Three Cigarettes in an Ashtray
TTITLE4=If I Could See The World
TTITLE5=Cry Not For Me
TTITLE6=Yes I Understand
TTITLE7=Dear God
TTITLE8=I'm Blue Again
TTITLE9=Love Me, Love Me, Honey Do
TTITLE10=Stop, Look and Listen
TTITLE11=Don't Ever Leave Me
TTITLE12=Then You'll Know
TTITLE13=Come On In
TTITLE14=Pick Me Up On Your Way Down
TTITLE15=Turn The Cards Slowly
TTITLE16=I Cried All The Way To The Altar
TTITLE17=Honky Tonk Merry Go Round
TTITLE18=I'm Moving Along
TTITLE19=Gotta Lot of Rhythm
EXTD=
EXTT0=
EXTT1=
EXTT2=
EXTT3=
EXTT4=
EXTT5=
EXTT6=
EXTT7=
EXTT8=
EXTT9=
EXTT10=
EXTT11=
EXTT12=
EXTT13=
EXTT14=
EXTT15=
EXTT16=
EXTT17=
EXTT18=
EXTT19=
PLAYORDER=
